<?xml version="1.0" encoding="UTF-8" standalone="no"?>
<!-- Created with Inkscape (http://www.inkscape.org/) -->

<svg
   width="108.46977mm"
   height="108.2694mm"
   viewBox="0 0 108.46977 108.2694"
   version="1.1"
   id="svg5"
   xmlns="http://www.w3.org/2000/svg"
   xmlns:svg="http://www.w3.org/2000/svg">
  <defs
     id="defs2">
    <rect
       x="214.36797"
       y="152.47574"
       width="291.99612"
       height="370.81247"
       id="rect1220" />
  </defs>
  <g
     id="layer1">
    <g
       id="g13577"
       transform="translate(-41.09185,-30.183951)">
      <g
         id="g1164"
         transform="matrix(-1,0,0,-1.103542,190.65369,182.97327)">
        <path
           id="path286"
           style="fill:#260d59;fill-opacity:1;fill-rule:evenodd;stroke-width:0.529167;stroke-linecap:round"
           d="m 56.678195,55.618827 c 0.138717,0.03123 0.279908,0.05494 0.418062,0.08785 0.587491,0.139961 1.169864,0.294808 1.746663,0.464571 0.5768,0.169763 1.147766,0.354273 1.713074,0.552938 0.565308,0.198666 1.124917,0.411535 1.677934,0.638204 0.553017,0.226669 1.099767,0.467114 1.639693,0.720886 0.539926,0.253773 1.072834,0.521008 1.598869,0.800985 0.526035,0.279977 1.04515,0.5727 1.556494,0.877983 0.511344,0.305282 1.015166,0.623224 1.511019,0.952913 0.495853,0.329689 0.983398,0.671548 1.46296,1.024744 0.479562,0.353195 0.950879,0.71767 1.41335,1.093473 0.462472,0.375803 0.916577,0.762625 1.361157,1.160136 0.444581,0.397511 0.879974,0.805895 1.305864,1.224215 0.42589,0.418319 0.842103,0.846447 1.248502,1.284676 0.4064,0.438229 0.802966,0.886348 1.189075,1.343587 0.386109,0.457239 0.761528,0.924048 1.126546,1.399398 0.365019,0.47535 0.719339,0.959546 1.062468,1.452107 0.343128,0.492562 0.675366,0.993361 0.995805,1.502234 0.320438,0.508874 0.629093,1.02549 0.926041,1.549777 0.296948,0.524286 0.582071,1.055934 0.854728,1.594734 0.272658,0.5388 0.532747,1.084695 0.780315,1.63711 0.247568,0.552414 0.482671,1.111771 0.704349,1.6769 0.221678,0.565129 0.430297,1.136129 0.625285,1.713074 0.194988,0.576944 0.376138,1.159835 0.543636,1.747697 0.167499,0.587861 0.321229,1.180824 0.460437,1.778702 0.139209,0.597878 0.264019,1.200646 0.374138,1.807642 0.110118,0.606996 0.205541,1.218266 0.28577,1.83348 0.08023,0.615214 0.145281,1.234201 0.19482,1.856734 h 19.701121 c -0.0246,-0.463978 -0.055,-0.926568 -0.0909,-1.388029 -0.0359,-0.461461 -0.0775,-0.922002 -0.12454,-1.380794 -0.0471,-0.458793 -0.0995,-0.916037 -0.15761,-1.37201 -0.0581,-0.455972 -0.12173,-0.910222 -0.19069,-1.363224 -0.069,-0.453002 -0.14303,-0.904559 -0.22272,-1.354439 -0.0797,-0.44988 -0.165,-0.898531 -0.25528,-1.345138 -0.0903,-0.446607 -0.18555,-0.891103 -0.28629,-1.334285 -0.10074,-0.443183 -0.20676,-0.88486 -0.31781,-1.324467 -0.22211,-0.879214 -0.46456,-1.751339 -0.72709,-2.615344 -0.26253,-0.864006 -0.54515,-1.719698 -0.84698,-2.567285 -0.30182,-0.847588 -0.62324,-1.686683 -0.96325,-2.516643 -0.34,-0.82996 -0.69883,-1.650742 -1.075898,-2.461865 -0.37707,-0.811123 -0.771928,-1.61291 -1.184941,-2.403988 -0.413012,-0.791077 -0.844075,-1.571636 -1.29191,-2.341459 -0.447835,-0.769822 -0.912692,-1.528989 -1.394231,-2.276347 -0.481538,-0.747358 -0.979844,-1.482899 -1.493965,-2.206583 -0.514122,-0.723685 -1.043982,-1.435435 -1.589567,-2.134237 -0.545586,-0.698801 -1.106655,-1.384529 -1.682585,-2.057239 -0.57593,-0.672709 -1.16683,-1.332249 -1.771985,-1.977657 -0.605155,-0.645408 -1.224507,-1.277044 -1.857767,-1.893941 -0.633261,-0.616897 -1.280204,-1.218914 -1.94045,-1.806091 -0.660247,-0.587177 -1.33392,-1.15941 -2.020032,-1.715658 -0.686113,-0.556248 -1.385137,-1.096463 -2.095996,-1.620573 -0.71086,-0.524109 -1.43334,-1.032143 -2.167827,-1.522904 -0.734486,-0.490762 -1.480595,-0.964381 -2.237589,-1.420585 -0.756994,-0.456205 -1.525353,-0.894727 -2.303736,-1.315166 -0.778382,-0.420438 -1.567096,-0.822665 -2.365747,-1.206127 -0.09535,-0.04578 -0.193758,-0.0855 -0.289388,-0.130742 a 59.104477,59.104477 0 0 0 -15.531351,15.27607 z" />
        <path
           id="path499"
           style="fill:#260d59;fill-opacity:1;fill-rule:evenodd;stroke-width:0.529167;stroke-linecap:round"
           d="m 55.903047,89.395577 h 19.70164 c -0.04572,-0.287243 -0.0985,-0.572885 -0.15813,-0.856795 -0.05963,-0.283911 -0.126313,-0.565857 -0.199471,-0.845943 -0.07316,-0.280087 -0.152965,-0.558288 -0.239262,-0.834058 -0.0863,-0.27577 -0.178973,-0.549142 -0.278019,-0.820105 -0.09905,-0.270963 -0.204333,-0.539456 -0.315743,-0.805119 -0.11141,-0.265663 -0.22905,-0.528711 -0.352434,-0.788582 C 73.938245,84.185103 73.809025,83.928068 73.674056,83.674479 73.539085,83.420891 73.398544,83.170951 73.252375,82.924137 73.106207,82.677324 72.954601,82.434012 72.797623,82.194466 72.640646,81.95492 72.478231,81.718803 72.310832,81.487016 72.14343,81.255228 71.970984,81.02739 71.793551,80.803853 71.616116,80.580317 71.433893,80.361323 71.246814,80.146529 71.059733,79.931735 70.867993,79.72112 70.671654,79.51556 70.475316,79.31 70.274315,79.109363 70.069107,78.913529 69.8639,78.717696 69.654412,78.527087 69.440722,78.341471 c -0.213689,-0.185615 -0.431407,-0.366146 -0.65319,-0.541052 -0.221783,-0.174906 -0.44799,-0.344275 -0.677478,-0.507979 -0.229489,-0.163704 -0.462376,-0.321863 -0.699182,-0.473873 -0.236807,-0.152011 -0.477151,-0.297875 -0.720886,-0.437699 -0.243736,-0.139825 -0.490764,-0.273345 -0.74104,-0.400493 -0.250278,-0.127148 -0.503731,-0.248273 -0.760161,-0.362252 -0.25643,-0.113978 -0.516052,-0.22111 -0.778247,-0.321427 -0.262195,-0.100318 -0.527211,-0.193405 -0.794783,-0.27957 -0.267573,-0.08616 -0.537726,-0.165158 -0.810287,-0.236678 -0.272561,-0.07152 -0.547594,-0.135852 -0.824756,-0.192236 -0.277162,-0.05638 -0.5563,-0.104972 -0.837675,-0.145727 -0.281374,-0.04076 -0.564877,-0.07355 -0.850077,-0.09819 -0.2852,-0.02463 -0.572293,-0.04107 -0.86093,-0.04909 -0.288636,-0.008 -0.579062,-0.0075 -0.870746,0.0015 -0.220866,0.0069 -0.443177,0.02338 -0.665594,0.04031 a 59.104477,59.104477 0 0 0 -1.992643,15.058512 z" />
        <path
           id="path497"
           style="fill:#55f2ea;fill-opacity:1;fill-rule:evenodd;stroke-width:0.529167;stroke-linecap:round"
           d="m 65.106662,84.226918 c 0.02272,-0.01877 0.04559,-0.03212 0.06821,-0.05219 0.09059,-0.08038 0.180091,-0.171117 0.267684,-0.270268 0.08759,-0.09915 0.173396,-0.20644 0.255798,-0.32091 0.0824,-0.114471 0.161666,-0.235909 0.236679,-0.362252 0.07501,-0.126344 0.145933,-0.257971 0.211356,-0.392741 0.06542,-0.13477 0.125167,-0.272628 0.178801,-0.412378 0.05363,-0.13975 0.100913,-0.281429 0.140559,-0.422713 0.03965,-0.141285 0.07163,-0.282308 0.09509,-0.42168 0.02346,-0.139372 0.03834,-0.276815 0.04341,-0.410828 0.0051,-0.134012 5.28e-4,-0.264433 -0.01499,-0.38964 -0.01551,-0.125207 -0.0418,-0.245162 -0.0801,-0.358118 -0.0383,-0.112955 -0.08865,-0.219002 -0.151929,-0.316259 -0.06328,-0.09726 -0.139494,-0.185954 -0.22996,-0.264067 -0.09047,-0.07811 -0.195377,-0.1455 -0.315226,-0.201021 -0.119849,-0.05552 -0.254746,-0.09919 -0.406177,-0.128675 -0.151431,-0.02948 -0.31915,-0.04496 -0.504362,-0.04496 a 59.104477,59.104477 0 0 0 0.205155,4.768701 z" />
        <path
           id="path493"
           style="fill:#260d59;fill-opacity:1;fill-rule:evenodd;stroke-width:0.529167;stroke-linecap:round"
           d="m 51.881588,129.48305 c 0.08911,-0.0435 0.180971,-0.082 0.269751,-0.12609 0.612074,-0.30423 1.216532,-0.62253 1.812292,-0.95446 0.59576,-0.33193 1.183211,-0.67739 1.76165,-1.03611 0.578438,-0.35873 1.147794,-0.73057 1.707906,-1.11518 0.560111,-0.38462 1.110801,-0.78206 1.651579,-1.19166 0.540778,-0.4096 1.071712,-0.83137 1.592151,-1.26504 0.520438,-0.43367 1.030529,-0.879 1.529622,-1.33583 0.499092,-0.45684 0.987253,-0.92496 1.463993,-1.40405 0.476741,-0.4791 0.941882,-0.96923 1.395264,-1.46968 0.453382,-0.50045 0.894933,-1.01131 1.32395,-1.53221 0.429018,-0.52089 0.845373,-1.05172 1.249019,-1.59215 0.403647,-0.54043 0.794752,-1.09045 1.172022,-1.64951 0.37727,-0.55906 0.741003,-1.1275 1.090889,-1.70429 0.349887,-0.57679 0.685677,-1.16184 1.007174,-1.75545 0.321498,-0.5936 0.628772,-1.19554 0.920874,-1.80506 0.292102,-0.60951 0.569257,-1.22704 0.830957,-1.85156 0.2617,-0.62452 0.507648,-1.25636 0.73794,-1.89498 0.230292,-0.63861 0.444977,-1.28399 0.642854,-1.9358 0.197878,-0.6518 0.379179,-1.30994 0.543636,-1.97404 0.164458,-0.66409 0.311803,-1.33371 0.441834,-2.009175 0.130031,-0.675466 0.242849,-1.356835 0.337447,-2.042769 0.0946,-0.685935 0.170768,-1.376729 0.228927,-2.072225 0.05816,-0.695496 0.09814,-1.395463 0.118855,-2.099614 0.02071,-0.70415 0.02239,-1.412519 0.0047,-2.124418 -0.01774,-0.711898 -0.05494,-1.427383 -0.112138,-2.146122 H 55.903048 c 0.06093,0.382849 0.110507,0.76422 0.148828,1.144116 0.03832,0.379897 0.06535,0.758357 0.08165,1.134815 0.0163,0.376457 0.02167,0.750912 0.01654,1.123445 -0.0051,0.372533 -0.02052,0.742922 -0.04651,1.111044 -0.02599,0.368122 -0.06227,0.733865 -0.10852,1.09709 -0.04625,0.363225 -0.102547,0.724263 -0.168465,1.082105 -0.06592,0.357841 -0.141857,0.712562 -0.22686,1.064534 -0.085,0.351973 -0.179171,0.700831 -0.28267,1.046448 -0.103499,0.345617 -0.21604,0.688036 -0.337447,1.026811 -0.121408,0.338775 -0.251946,0.674176 -0.390674,1.005625 -0.138728,0.33145 -0.285856,0.65925 -0.441317,0.98288 -0.155461,0.32364 -0.318803,0.64327 -0.490409,0.9586 -0.171606,0.31534 -0.351305,0.62621 -0.538468,0.93276 -0.187164,0.30655 -0.381812,0.60861 -0.583944,0.90589 -0.202133,0.29727 -0.411872,0.58995 -0.628386,0.87746 -0.216513,0.28752 -0.439936,0.56971 -0.670243,0.84698 -0.230307,0.27727 -0.467555,0.54943 -0.711068,0.81597 -0.243513,0.26654 -0.493177,0.52758 -0.749308,0.7829 -0.256131,0.25532 -0.518871,0.50517 -0.787032,0.74879 -0.268161,0.24362 -0.542052,0.48119 -0.821655,0.71262 -0.279603,0.23143 -0.564788,0.45665 -0.855245,0.67541 -0.290457,0.21876 -0.586044,0.43106 -0.886768,0.63665 -0.300723,0.2056 -0.606338,0.4044 -0.91674,0.59635 -0.310401,0.19195 -0.625669,0.37667 -0.945162,0.55449 -0.319492,0.17781 -0.643521,0.3484 -0.971517,0.5116 -0.327995,0.16319 -0.659894,0.31906 -0.995804,0.46715 -0.33591,0.14809 -0.675823,0.28867 -1.01906,0.42116 -0.160014,0.0618 -0.323211,0.11585 -0.484725,0.17415 a 59.104477,59.104477 0 0 0 10.789523,16.64963 z" />
        <path
           id="path489"
           style="fill:#260d59;fill-opacity:1;fill-rule:evenodd;stroke-width:0.529167;stroke-linecap:round"
           d="m 133.9355,123.16458 c -0.19978,-0.0449 -0.40241,-0.0813 -0.601,-0.12971 -0.58451,-0.14243 -1.16363,-0.29986 -1.73736,-0.47181 -0.57373,-0.17194 -1.14212,-0.35805 -1.70429,-0.55862 -0.56217,-0.20057 -1.11829,-0.4156 -1.66812,-0.64389 -0.54983,-0.22829 -1.09317,-0.46989 -1.62987,-0.72502 -0.5367,-0.25513 -1.06678,-0.52353 -1.58957,-0.8046 -0.52279,-0.28107 -1.03858,-0.57497 -1.54667,-0.88108 -0.5081,-0.30612 -1.00859,-0.62471 -1.5012,-0.95499 -0.49262,-0.33027 -0.97731,-0.67224 -1.45366,-1.02577 -0.47635,-0.35353 -0.94423,-0.71861 -1.40353,-1.09451 -0.45931,-0.3759 -0.90987,-0.76276 -1.35134,-1.16014 -0.44148,-0.39737 -0.8737,-0.80522 -1.29656,-1.22318 -0.42286,-0.41795 -0.83626,-0.846 -1.23972,-1.28364 -0.40346,-0.43764 -0.79701,-0.88457 -1.18029,-1.341 -0.38328,-0.45644 -0.75648,-0.92196 -1.1188,-1.3963 -0.36231,-0.47434 -0.71415,-0.95766 -1.05471,-1.44901 -0.34056,-0.49134 -0.67003,-0.99115 -0.98806,-1.49861 -0.31802,-0.50746 -0.62461,-1.02245 -0.91932,-1.54513 -0.29471,-0.52268 -0.5774,-1.05307 -0.84801,-1.59008 -0.27061,-0.53701 -0.52891,-1.08098 -0.77463,-1.63143 -0.24572,-0.55044 -0.47861,-1.1072 -0.69866,-1.67018 -0.22006,-0.562984 -0.42704,-1.131723 -0.62064,-1.706355 -0.1936,-0.574632 -0.37418,-1.155076 -0.54053,-1.740463 -0.16636,-0.585386 -0.31849,-1.17622 -0.45682,-1.771468 -0.13834,-0.595247 -0.26254,-1.195157 -0.37207,-1.799373 -0.10954,-0.604216 -0.2048,-1.212405 -0.28474,-1.824695 -0.0799,-0.61229 -0.14474,-1.228478 -0.1943,-1.847949 H 85.450597 c 0.02531,0.476901 0.05681,0.952535 0.09405,1.426786 0.03724,0.474252 0.08017,0.947081 0.129191,1.418518 0.04902,0.471437 0.103684,0.941276 0.164331,1.409733 0.06065,0.468458 0.127348,0.935635 0.199471,1.400948 0.07212,0.465314 0.15013,0.929125 0.233577,1.39113 0.08345,0.462005 0.172547,0.922262 0.267167,1.380794 0.09462,0.458532 0.194599,0.915049 0.300241,1.369943 0.105641,0.454893 0.216802,0.908001 0.333313,1.359091 0.11651,0.45109 0.238123,0.90008 0.365352,1.3472 0.127229,0.44713 0.260113,0.89233 0.397908,1.33532 0.137795,0.44299 0.280705,0.88423 0.428915,1.32292 0.148209,0.43869 0.301447,0.87473 0.45992,1.30896 0.158473,0.43423 0.322342,0.86644 0.490926,1.29605 0.168584,0.4296 0.341838,0.85676 0.520382,1.28157 0.178544,0.42482 0.362004,0.84725 0.550354,1.26711 0.18835,0.41986 0.3818,0.83738 0.57981,1.25212 0.19801,0.41474 0.40072,0.82665 0.60823,1.2361 0.20751,0.40945 0.41979,0.81608 0.63665,1.22008 0.43374,0.808 0.88628,1.60534 1.35651,2.39055 0.47024,0.78521 0.95795,1.55866 1.46348,2.31976 0.50552,0.7611 1.02877,1.50966 1.56838,2.24534 0.5396,0.73567 1.09565,1.45838 1.66811,2.16731 0.57247,0.70893 1.16115,1.40428 1.765275,2.08514 0.60412,0.68087 1.22373,1.34736 1.85828,1.99885 0.63456,0.65148 1.28391,1.28762 1.94769,1.90841 0.66378,0.62078 1.34219,1.2261 2.03398,1.81487 0.69179,0.58877 1.39705,1.16126 2.11564,1.71669 0.71858,0.55544 1.45052,1.0936 2.19469,1.61438 0.37209,0.26039 0.74726,0.51643 1.12552,0.76791 0.37825,0.25148 0.75932,0.49863 1.1436,0.74104 0.38427,0.2424 0.77154,0.47997 1.16168,0.71313 0.39014,0.23317 0.78341,0.46199 1.17926,0.68575 0.39585,0.22376 0.79438,0.44262 1.19579,0.65681 0.40142,0.21419 0.80551,0.42341 1.21233,0.62786 0.39382,0.19793 0.79032,0.39117 1.18908,0.57981 a 59.104477,59.104477 0 0 0 15.54582,-15.28898 z" />
        <path
           id="path485"
           style="fill:#260d59;fill-opacity:1;fill-rule:evenodd;stroke-width:0.529167;stroke-linecap:round"
           d="m 134.71323,89.395577 h -19.6851 c 0.0457,0.285846 0.0986,0.570099 0.15813,0.852661 0.0595,0.282562 0.12556,0.563536 0.19844,0.842326 0.0729,0.27879 0.15236,0.555392 0.23823,0.829923 0.0859,0.274532 0.17798,0.546704 0.27646,0.816488 0.0985,0.269784 0.20348,0.537469 0.3142,0.802018 0.11071,0.26455 0.22728,0.526138 0.34985,0.784965 0.12256,0.258827 0.25094,0.514778 0.38499,0.767395 0.13404,0.252617 0.27395,0.501839 0.41909,0.747758 0.14514,0.245919 0.2958,0.488354 0.45165,0.727088 0.15586,0.238733 0.31699,0.473806 0.48318,0.704866 0.16619,0.231061 0.337,0.458196 0.51315,0.681096 0.17614,0.222899 0.35739,0.441523 0.54311,0.655774 0.18573,0.21425 0.37611,0.424304 0.57103,0.629419 0.19492,0.205114 0.39467,0.405507 0.59841,0.600996 0.20374,0.19549 0.41156,0.38616 0.62374,0.57154 0.21218,0.18538 0.42829,0.36524 0.64854,0.54002 0.22024,0.17478 0.44438,0.34429 0.67231,0.50798 0.22792,0.16369 0.45982,0.32176 0.69504,0.47387 0.23523,0.15212 0.47409,0.29817 0.71624,0.43822 0.24215,0.14005 0.4877,0.27402 0.73639,0.40152 0.24869,0.12751 0.50065,0.24883 0.75551,0.36329 0.25485,0.11446 0.51244,0.22204 0.77308,0.32298 0.26064,0.10094 0.52409,0.19523 0.79013,0.28215 0.26604,0.0869 0.53457,0.16632 0.80564,0.23875 0.27106,0.0724 0.54489,0.1379 0.82062,0.19533 0.27571,0.0574 0.55356,0.10687 0.83354,0.14883 0.27997,0.042 0.56207,0.0763 0.84594,0.10232 0.28386,0.026 0.56941,0.0437 0.8568,0.0532 0.28737,0.01 0.57662,0.011 0.86713,0.004 0.25089,-0.006 0.50306,-0.0225 0.75601,-0.0418 a 59.104477,59.104477 0 0 0 1.98852,-15.044563 z" />
        <path
           id="path479"
           style="fill:#260d59;fill-opacity:1;fill-rule:evenodd;stroke-width:0.529167;stroke-linecap:round"
           d="m 138.73623,49.307585 c -0.007,0.0036 -0.0149,0.0067 -0.0222,0.01033 -0.61424,0.300367 -1.22091,0.614395 -1.81901,0.942578 -0.5981,0.328183 -1.18793,0.670162 -1.76888,1.02526 -0.58095,0.355099 -1.15288,0.723729 -1.71566,1.104843 -0.56278,0.381113 -1.11624,0.774579 -1.65985,1.180806 -0.5436,0.406227 -1.07752,0.82478 -1.60093,1.255221 -0.52342,0.43044 -1.0362,0.872781 -1.53841,1.326534 -0.50221,0.453752 -0.99381,0.919099 -1.47381,1.395263 -0.48,0.476164 -0.94831,0.963218 -1.40508,1.460893 -0.45677,0.497675 -0.90176,1.00617 -1.33429,1.524455 -0.43253,0.518285 -0.85259,1.046405 -1.25987,1.584399 -0.40728,0.537994 -0.80186,1.085991 -1.18287,1.642794 -0.38101,0.556803 -0.74853,1.122344 -1.10226,1.697054 -0.35374,0.57471 -0.69362,1.158564 -1.01906,1.750281 -0.32545,0.591717 -0.63662,1.19155 -0.93276,1.799373 -0.29614,0.607823 -0.57753,1.22337 -0.84336,1.846399 -0.26583,0.623029 -0.51584,1.253508 -0.75034,1.890841 -0.2345,0.637333 -0.4531,1.281445 -0.65526,1.932182 -0.20216,0.650736 -0.38826,1.308216 -0.55707,1.971455 -0.16881,0.66324 -0.32031,1.332271 -0.45475,2.007113 -0.13445,0.674842 -0.25182,1.355159 -0.35089,2.040702 -0.0991,0.685544 -0.18019,1.376365 -0.24288,2.071709 -0.0627,0.695344 -0.10649,1.395369 -0.13177,2.099613 -0.0253,0.704244 -0.0317,1.412692 -0.0186,2.124935 0.0131,0.712243 0.0456,1.428331 0.0982,2.147672 0.006,0.0853 0.0149,0.170107 0.0217,0.255282 h 19.70887 c -0.007,-0.0427 -0.0162,-0.08487 -0.0227,-0.127641 -0.0585,-0.383367 -0.10572,-0.7654 -0.14159,-1.145666 -0.0359,-0.380267 -0.0606,-0.758648 -0.0744,-1.135332 -0.0139,-0.376683 -0.0168,-0.751343 -0.009,-1.123962 0.008,-0.372618 0.0259,-0.743489 0.0543,-1.11156 0.0284,-0.368071 0.0671,-0.733533 0.11576,-1.096574 0.0486,-0.36304 0.10692,-0.723543 0.17518,-1.081071 0.0683,-0.357528 0.14627,-0.711968 0.23358,-1.063501 0.0873,-0.351532 0.18413,-0.700359 0.2899,-1.045414 0.10577,-0.345055 0.22053,-0.686649 0.34417,-1.024744 0.12364,-0.338095 0.25595,-0.672387 0.39687,-1.003039 0.14092,-0.330653 0.29043,-0.657575 0.44804,-0.980302 0.15761,-0.322728 0.32342,-0.641177 0.49713,-0.955497 0.1737,-0.314321 0.35546,-0.624229 0.54467,-0.929659 0.1892,-0.305431 0.38602,-0.60673 0.59014,-0.902788 0.20412,-0.296058 0.41562,-0.587128 0.63407,-0.873331 0.21845,-0.286204 0.44375,-0.567494 0.67593,-0.84336 0.23218,-0.275866 0.47091,-0.546273 0.71623,-0.81132 0.24532,-0.265046 0.49713,-0.524503 0.755,-0.778247 0.25786,-0.253744 0.52185,-0.501664 0.79168,-0.743624 0.26982,-0.241959 0.54563,-0.478274 0.82682,-0.707967 0.28119,-0.229692 0.56793,-0.452783 0.8599,-0.669726 0.29197,-0.216943 0.58926,-0.427258 0.89142,-0.63097 0.30215,-0.203711 0.60912,-0.401181 0.92087,-0.591178 0.31175,-0.189997 0.62803,-0.373004 0.94878,-0.548804 0.32075,-0.1758 0.64598,-0.344275 0.97513,-0.505395 0.32916,-0.161121 0.66245,-0.314478 0.99943,-0.460437 0.33697,-0.145959 0.67743,-0.28413 1.02164,-0.414445 0.12467,-0.0472 0.25218,-0.0877 0.37775,-0.132809 A 59.104477,59.104477 0 0 0 138.73623,49.307585 Z" />
        <path
           id="path483"
           style="fill:#55f2ea;fill-opacity:1;fill-rule:evenodd;stroke-width:0.529167;stroke-linecap:round"
           d="m 124.6769,92.184404 c -0.0164,0.01362 -0.0328,0.02293 -0.0491,0.03721 -0.0911,0.07982 -0.18148,0.169586 -0.26975,0.268201 -0.0883,0.09861 -0.17469,0.205904 -0.25786,0.319877 -0.0832,0.113973 -0.16289,0.234804 -0.23875,0.360702 -0.0759,0.125897 -0.14762,0.256801 -0.21394,0.39119 -0.0663,0.134389 -0.12734,0.272414 -0.1819,0.411861 -0.0546,0.139448 -0.10256,0.280091 -0.14314,0.421163 -0.0406,0.141072 -0.0738,0.282416 -0.0982,0.42168 -0.0244,0.139264 -0.04,0.276806 -0.046,0.410828 -0.006,0.134022 -0.002,0.264293 0.0124,0.38964 0.0147,0.125347 0.0405,0.245396 0.078,0.358634 0.0376,0.113239 0.0872,0.219596 0.14987,0.317294 0.0627,0.0977 0.13842,0.186894 0.22841,0.265617 0.09,0.07872 0.19415,0.14729 0.31367,0.203605 0.11953,0.05631 0.25437,0.100268 0.40566,0.130741 0.15129,0.03047 0.31909,0.04738 0.50436,0.04858 a 59.104477,59.104477 0 0 0 -0.19378,-4.756816 z" />
      </g>
      <g
         aria-label="Rock
Paper
Scissors
+"
         transform="matrix(0.26458333,0,0,0.29197879,-0.25272526,1.3306342)"
         id="text1218"
         style="font-size:53.3333px;font-family:'Atkinson Hyperlegible';-inkscape-font-specification:'Atkinson Hyperlegible, Normal';white-space:pre;shape-inside:url(#rect1220);display:inline;fill:#feff71;fill-rule:evenodd;stroke:#000000;stroke-width:1.99937;stroke-linecap:round;stroke-opacity:0.560127">
        <path
           d="m 319.85862,178.66321 q 1.86666,-1.86666 1.86666,-5.75999 0,-3.89333 -1.86666,-5.76 -1.86667,-1.86667 -5.81333,-1.86667 h -7.68 v 15.25333 h 7.68 q 3.94666,0 5.81333,-1.86667 z m 14.77332,22.71999 h -9.17333 l -6.07999,-12.37333 q -1.76,-3.62666 -3.2,-4.63999 -1.49333,-1.06667 -4,-1.06667 h -5.81333 v 15.30666 h 5.49333 v 2.77333 H 296.1253 v -2.77333 h 4.95999 v -33.33332 h -4.95999 v -2.77333 h 19.73332 q 5.59999,0 8.74666,2.72 3.09333,2.72 3.09333,7.68 0,3.99999 -2.29333,6.29333 -2.24,2.29333 -6.66666,2.87999 1.86666,0.48 3.14666,1.70667 1.38667,1.28 2.34667,3.30667 l 5.65333,11.51999 h 4.74666 z"
           style="font-family:'DejaVu Math TeX Gyre';-inkscape-font-specification:'DejaVu Math TeX Gyre, Normal';text-align:center;text-anchor:middle"
           id="path13798" />
        <path
           d="m 362.73863,187.51654 q 0,6.56 -3.62666,10.61333 -3.68,4 -9.76,4 -6.02666,0 -9.70666,-4 -3.67999,-4 -3.67999,-10.61333 0,-6.61333 3.62666,-10.55999 3.68,-4 9.75999,-4 6.08,0 9.76,4 3.62666,3.94666 3.62666,10.55999 z m -5.59999,0 q 0,-5.97333 -1.97334,-8.95999 -2.02666,-3.04 -5.81333,-3.04 -3.78666,0 -5.81333,3.04 -1.97333,2.98666 -1.97333,8.95999 0,5.97333 1.97333,8.96 1.97334,3.09333 5.81333,3.09333 3.78667,0 5.81333,-3.04 1.97334,-2.98667 1.97334,-9.01333 z"
           style="font-family:'DejaVu Math TeX Gyre';-inkscape-font-specification:'DejaVu Math TeX Gyre, Normal';text-align:center;text-anchor:middle"
           id="path13800" />
        <path
           d="m 392.81858,193.0632 q -1.06667,4.53334 -3.89333,6.72 -2.82667,2.34667 -7.46667,2.34667 -6.02666,0 -9.70666,-4 -3.67999,-4 -3.67999,-10.61333 0,-6.71999 3.67999,-10.61333 3.68,-3.94666 9.70666,-3.94666 2.45334,0 5.22667,0.58667 2.4,0.58666 5.22666,1.86666 v 7.09333 h -2.77333 q -0.53333,-3.57333 -2.4,-5.33333 -1.92,-1.65333 -5.22666,-1.65333 -3.84,0 -5.86667,3.04 -1.97333,2.93333 -1.97333,8.95999 0,6.02666 1.97333,9.01333 2.02667,3.04 5.86667,3.04 3.14666,0 4.90666,-1.6 1.81333,-1.6 2.56,-4.90667 z"
           style="font-family:'DejaVu Math TeX Gyre';-inkscape-font-specification:'DejaVu Math TeX Gyre, Normal';text-align:center;text-anchor:middle"
           id="path13802" />
        <path
           d="m 427.9652,201.3832 h -13.65333 v -2.77333 h 3.94667 l -8.26667,-11.35999 -3.78666,3.51999 v 7.84 h 4.32 v 2.77333 h -13.43999 v -2.77333 h 4.31999 v -34.98665 h -4.58666 v -2.77333 h 9.38666 v 26.39999 l 11.67999,-10.77333 h -3.99999 v -2.77333 h 12.53332 v 2.77333 h -4.74666 l -8.21333,7.62666 10.50666,14.50666 h 4 z"
           style="font-family:'DejaVu Math TeX Gyre';-inkscape-font-specification:'DejaVu Math TeX Gyre, Normal';text-align:center;text-anchor:middle"
           id="path13804" />
        <path
           d="m 314.9519,241.48297 q 0,5.06666 -3.41333,7.99999 -3.52,2.93333 -9.22667,2.93333 h -8.15999 v 14.24 h 6.02666 v 2.77333 h -16.26666 v -2.77333 h 4.96 v -33.33332 h -4.96 v -2.77333 h 18.39999 q 5.70667,0 9.22667,2.93333 3.41333,3.04 3.41333,8 z m -5.97333,0 q 0,-3.94667 -2.02667,-6.08 -1.97333,-2.08 -5.92,-2.08 h -6.87999 v 16.31999 h 6.87999 q 3.94667,0 5.92,-2.08 2.02667,-2.18666 2.02667,-6.07999 z"
           style="font-family:'DejaVu Math TeX Gyre';-inkscape-font-specification:'DejaVu Math TeX Gyre, Normal';text-align:center;text-anchor:middle"
           id="path13806" />
        <path
           d="m 347.11193,269.42962 h -9.06667 v -2.98667 q -1.65333,1.97333 -3.67999,2.82667 -2.13334,0.90666 -4.85333,0.90666 -4.64,0 -7.30667,-2.45333 -2.71999,-2.45333 -2.71999,-6.61333 0,-4.37333 3.09333,-6.66666 3.14666,-2.34667 8.74666,-2.34667 h 6.71999 v -1.91999 q 0,-3.2 -1.91999,-4.85334 -1.92,-1.75999 -5.38667,-1.75999 -2.98666,0 -4.53333,1.33333 -1.70666,1.28 -2.13333,3.84 h -2.45333 v -5.6 q 2.4,-1.01333 4.85333,-1.6 2.18666,-0.53333 4.58666,-0.53333 5.70666,0 8.8,2.82666 2.98666,2.88 2.98666,8.32 v 14.50666 h 4.26667 z m -9.06667,-8.69333 v -5.86666 h -6.18666 q -3.52,0 -5.33333,1.54666 -1.70666,1.54667 -1.70666,4.69333 0,2.88 1.75999,4.58667 1.81334,1.70666 4.8,1.70666 2.93333,0 4.85333,-1.81333 1.81333,-1.97333 1.81333,-4.85333 z"
           style="font-family:'DejaVu Math TeX Gyre';-inkscape-font-specification:'DejaVu Math TeX Gyre, Normal';text-align:center;text-anchor:middle"
           id="path13808" />
        <path
           d="m 376.87194,245.00297 q 3.2,4.05333 3.2,10.55999 0,6.50666 -3.2,10.55999 -3.25333,4.05333 -8.37333,4.05333 -3.19999,0 -5.38666,-1.22666 -2.24,-1.22667 -3.57333,-3.84 v 12.63999 h 4.53333 v 2.77333 h -13.91999 v -2.77333 h 4.58666 v -33.22664 h -4.58666 v -2.77334 h 9.38666 v 4.32 q 1.33333,-2.61333 3.57333,-3.84 2.18667,-1.22666 5.38666,-1.22666 5.06667,0 8.37333,4 z m -4.26666,19.25332 q 1.86666,-2.98667 1.86666,-8.69333 0,-5.70666 -1.86666,-8.64 -1.92,-2.93333 -5.6,-2.93333 -3.57333,0 -5.54666,2.61333 -1.92,2.72 -1.92,7.62667 v 2.71999 q 0,5.01334 1.92,7.62667 1.92,2.61333 5.54666,2.61333 3.68,0 5.6,-2.93333 z"
           style="font-family:'DejaVu Math TeX Gyre';-inkscape-font-specification:'DejaVu Math TeX Gyre, Normal';text-align:center;text-anchor:middle"
           id="path13810" />
        <path
           d="m 405.9919,253.32296 q -0.16,-4.8 -2.02667,-7.30666 -1.92,-2.45333 -5.43999,-2.45333 -3.36,0 -5.22667,2.50666 -1.92,2.45333 -2.29333,7.25333 z m 5.65333,2.77333 h -20.63999 v 0.21334 q 0,5.65333 2.08,8.42666 2.13333,2.87999 6.23999,2.87999 3.2,0 5.17333,-1.65333 2.02667,-1.70666 2.82667,-4.90666 h 3.84 q -1.12,4.53333 -4.21333,6.82666 -3.09333,2.29333 -8.10667,2.29333 -6.07999,0 -9.75999,-3.99999 -3.68,-4 -3.68,-10.61333 0,-6.50666 3.62667,-10.55999 3.62666,-4 9.49333,-4 6.29332,0 9.65332,3.89333 3.41333,3.89333 3.46667,11.19999 z"
           style="font-family:'DejaVu Math TeX Gyre';-inkscape-font-specification:'DejaVu Math TeX Gyre, Normal';text-align:center;text-anchor:middle"
           id="path13812" />
        <path
           d="m 439.75185,248.62963 h -2.77333 q -0.0533,-2.02667 -1.12,-3.09333 -1.01333,-1.01333 -2.98666,-1.01333 -3.57333,0 -5.38666,2.45333 -1.92,2.50666 -1.92,7.03999 v 12.64 h 5.54666 v 2.77333 H 416.4452 v -2.77333 h 4.32 v -22.18666 h -4.58666 v -2.72 h 9.38666 v 4.90667 q 1.38666,-2.88 3.62666,-4.26667 2.18667,-1.38666 5.38666,-1.38666 1.17334,0 2.45334,0.16 l 2.71999,0.53333 z"
           style="font-family:'DejaVu Math TeX Gyre';-inkscape-font-specification:'DejaVu Math TeX Gyre, Normal';text-align:center;text-anchor:middle"
           id="path13814" />
        <path
           d="m 281.4586,326.86271 q 0,5.65333 -3.62666,8.47999 -3.62667,2.88 -10.77333,2.88 -3.2,0 -6.50666,-0.64 -3.41334,-0.64 -6.77333,-1.97333 v -8.85333 h 2.98666 q 0.0533,4.42666 2.56,6.56 2.45333,2.13333 7.41333,2.13333 4.58666,0 7.03999,-1.81333 2.45334,-1.92 2.45334,-5.38667 0,-2.82666 -1.49334,-4.31999 -1.38666,-1.49334 -6.18666,-2.93334 l -5.12,-1.54666 q -5.43999,-1.65333 -7.83999,-4.21333 -2.29333,-2.45333 -2.29333,-6.93333 0,-4.96 3.51999,-7.68 3.52,-2.72 9.86667,-2.72 2.55999,0 5.91999,0.58667 3.09333,0.53333 6.88,1.70667 v 8.26666 h -2.93333 q -0.37334,-4 -2.77334,-5.97333 -2.29333,-1.81333 -6.98666,-1.81333 -4.21333,0 -6.23999,1.70666 -2.18667,1.54667 -2.18667,4.85333 0,2.77333 1.65333,4.37333 1.65333,1.65334 6.82667,3.14667 l 4.79999,1.44 q 5.28,1.6 7.57333,4.05333 2.24,2.45333 2.24,6.61333 z"
           style="font-family:'DejaVu Math TeX Gyre';-inkscape-font-specification:'DejaVu Math TeX Gyre, Normal';text-align:center;text-anchor:middle"
           id="path13816" />
        <path
           d="m 312.76522,329.15604 q -1.06667,4.53333 -3.89333,6.72 -2.82667,2.34666 -7.46666,2.34666 -6.02667,0 -9.70666,-4 -3.68,-3.99999 -3.68,-10.61332 0,-6.72 3.68,-10.61333 3.67999,-3.94667 9.70666,-3.94667 2.45333,0 5.22666,0.58667 2.4,0.58667 5.22666,1.86667 v 7.09333 h -2.77333 q -0.53333,-3.57334 -2.4,-5.33333 -1.92,-1.65334 -5.22666,-1.65334 -3.84,0 -5.86666,3.04 -1.97334,2.93333 -1.97334,8.96 0,6.02666 1.97334,9.01332 2.02666,3.04 5.86666,3.04 3.14666,0 4.90666,-1.6 1.81334,-1.6 2.56,-4.90666 z"
           style="font-family:'DejaVu Math TeX Gyre';-inkscape-font-specification:'DejaVu Math TeX Gyre, Normal';text-align:center;text-anchor:middle"
           id="path13818" />
        <path
           d="m 331.05851,337.47603 h -13.91999 v -2.77333 h 4.58666 v -22.13332 h -4.58666 v -2.77333 h 9.38666 v 24.90665 h 4.53333 z m -4.74666,-36.26664 q 0,1.22667 -0.85333,2.08 -0.85334,0.85333 -2.08,0.85333 -1.28,0 -2.08,-0.85333 -0.90667,-0.85333 -0.90667,-2.08 0,-1.22667 0.90667,-2.08 0.8,-0.90667 2.08,-0.90667 1.12,0 2.08,0.85334 0.85333,1.01333 0.85333,2.13333 z"
           style="font-family:'DejaVu Math TeX Gyre';-inkscape-font-specification:'DejaVu Math TeX Gyre, Normal';text-align:center;text-anchor:middle"
           id="path13820" />
        <path
           d="m 356.87184,329.79604 q 0,3.94666 -2.98666,6.18666 -3.04,2.24 -8.32,2.24 -2.56,0 -5.22666,-0.58667 -2.45333,-0.53333 -5.12,-1.70666 v -6.45333 h 2.77333 q 0.0533,3.04 1.92,4.64 1.97334,1.54666 5.44,1.54666 3.25333,0 4.90666,-1.22666 1.70667,-1.17334 1.70667,-3.52 0,-1.81333 -1.22667,-2.93333 -1.17333,-1.12 -5.22666,-2.4 l -3.46666,-1.17333 q -3.52,-1.12 -5.17334,-2.82667 -1.59999,-1.76 -1.59999,-4.42666 0,-3.89333 2.82666,-5.92 2.66667,-2.18667 7.68,-2.18667 2.39999,0 4.58666,0.58667 2.24,0.42667 5.01333,1.65333 v 6.02667 h -2.77333 q -0.10667,-2.72 -1.86667,-4.16 -1.70666,-1.54667 -4.79999,-1.54667 -3.04,0 -4.58667,1.06667 -1.54666,1.06667 -1.54666,3.2 0,1.70666 1.17333,2.82666 1.33333,1.06667 4.69333,2.13333 l 3.78666,1.17334 q 4,1.22666 5.70667,3.09333 1.70666,1.81333 1.70666,4.69333 z"
           style="font-family:'DejaVu Math TeX Gyre';-inkscape-font-specification:'DejaVu Math TeX Gyre, Normal';text-align:center;text-anchor:middle"
           id="path13822" />
        <path
           d="m 384.23186,329.79604 q 0,3.94666 -2.98667,6.18666 -3.03999,2.24 -8.31999,2.24 -2.56,0 -5.22666,-0.58667 -2.45334,-0.53333 -5.12,-1.70666 v -6.45333 h 2.77333 q 0.0533,3.04 1.92,4.64 1.97333,1.54666 5.44,1.54666 3.25333,0 4.90666,-1.22666 1.70667,-1.17334 1.70667,-3.52 0,-1.81333 -1.22667,-2.93333 -1.17333,-1.12 -5.22666,-2.4 l -3.46667,-1.17333 q -3.52,-1.12 -5.17333,-2.82667 -1.6,-1.76 -1.6,-4.42666 0,-3.89333 2.82667,-5.92 2.66666,-2.18667 7.67999,-2.18667 2.4,0 4.58667,0.58667 2.23999,0.42667 5.01333,1.65333 v 6.02667 h -2.77334 q -0.10666,-2.72 -1.86666,-4.16 -1.70667,-1.54667 -4.8,-1.54667 -3.04,0 -4.58666,1.06667 -1.54667,1.06667 -1.54667,3.2 0,1.70666 1.17333,2.82666 1.33334,1.06667 4.69334,2.13333 l 3.78666,1.17334 q 4,1.22666 5.70666,3.09333 1.70667,1.81333 1.70667,4.69333 z"
           style="font-family:'DejaVu Math TeX Gyre';-inkscape-font-specification:'DejaVu Math TeX Gyre, Normal';text-align:center;text-anchor:middle"
           id="path13824" />
        <path
           d="m 416.39186,323.60938 q 0,6.55999 -3.62667,10.61332 -3.68,4 -9.75999,4 -6.02667,0 -9.70666,-4 -3.68,-3.99999 -3.68,-10.61332 0,-6.61333 3.62666,-10.56 3.68,-4 9.76,-4 6.07999,0 9.75999,4 3.62667,3.94667 3.62667,10.56 z m -5.6,0 q 0,-5.97333 -1.97333,-8.96 -2.02667,-3.04 -5.81333,-3.04 -3.78667,0 -5.81333,3.04 -1.97333,2.98667 -1.97333,8.96 0,5.97333 1.97333,8.95999 1.97333,3.09333 5.81333,3.09333 3.78666,0 5.81333,-3.04 1.97333,-2.98666 1.97333,-9.01332 z"
           style="font-family:'DejaVu Math TeX Gyre';-inkscape-font-specification:'DejaVu Math TeX Gyre, Normal';text-align:center;text-anchor:middle"
           id="path13826" />
        <path
           d="m 444.55181,316.67605 h -2.77334 q -0.0533,-2.02667 -1.12,-3.09333 -1.01333,-1.01334 -2.98666,-1.01334 -3.57333,0 -5.38666,2.45333 -1.92,2.50667 -1.92,7.04 v 12.63999 h 5.54666 v 2.77333 h -14.66666 v -2.77333 h 4.32 v -22.18665 h -4.58666 v -2.72 h 9.38666 v 4.90666 q 1.38666,-2.87999 3.62666,-4.26666 2.18667,-1.38667 5.38667,-1.38667 1.17333,0 2.45333,0.16 l 2.72,0.53334 z"
           style="font-family:'DejaVu Math TeX Gyre';-inkscape-font-specification:'DejaVu Math TeX Gyre, Normal';text-align:center;text-anchor:middle"
           id="path13828" />
        <path
           d="m 469.19182,329.79604 q 0,3.94666 -2.98667,6.18666 -3.03999,2.24 -8.31999,2.24 -2.56,0 -5.22666,-0.58667 -2.45334,-0.53333 -5.12,-1.70666 v -6.45333 h 2.77333 q 0.0533,3.04 1.92,4.64 1.97333,1.54666 5.44,1.54666 3.25333,0 4.90666,-1.22666 1.70667,-1.17334 1.70667,-3.52 0,-1.81333 -1.22667,-2.93333 -1.17333,-1.12 -5.22666,-2.4 l -3.46667,-1.17333 q -3.52,-1.12 -5.17333,-2.82667 -1.6,-1.76 -1.6,-4.42666 0,-3.89333 2.82667,-5.92 2.66666,-2.18667 7.67999,-2.18667 2.4,0 4.58667,0.58667 2.24,0.42667 5.01333,1.65333 v 6.02667 h -2.77333 q -0.10667,-2.72 -1.86667,-4.16 -1.70667,-1.54667 -4.8,-1.54667 -3.04,0 -4.58666,1.06667 -1.54667,1.06667 -1.54667,3.2 0,1.70666 1.17334,2.82666 1.33333,1.06667 4.69333,2.13333 l 3.78666,1.17334 q 4,1.22666 5.70666,3.09333 1.70667,1.81333 1.70667,4.69333 z"
           style="font-family:'DejaVu Math TeX Gyre';-inkscape-font-specification:'DejaVu Math TeX Gyre, Normal';text-align:center;text-anchor:middle"
           id="path13830" />
        <path
           d="m 377.11189,392.98913 h -14.61333 v 14.61332 h -4.26666 v -14.61332 h -14.61333 v -4.26667 h 14.61333 v -14.61332 h 4.26666 v 14.61332 h 14.61333 z"
           style="font-family:'DejaVu Math TeX Gyre';-inkscape-font-specification:'DejaVu Math TeX Gyre, Normal';text-align:center;text-anchor:middle"
           id="path13832" />
      </g>
    </g>
  </g>
</svg>
